<svg viewBox="0 0 24 24" xmlns="http://www.w3.org/2000/svg">
    <path fill-rule="evenodd" d="M16.416 18.787c.083 0 .115-.024.115.008v-6.862c0-.022-.084-.102-.115-.102H4.24c.034 0 .017.021.017.102v6.854h12.16zm-7.329-8.17h7.33c.719 0 1.37.62 1.37 1.316v.577l1.927-.677a.044.044 0 00.027-.058l-1.631-4.33-9.023 3.173zm8.593-4.312l-.4-1.061a.048.048 0 00-.06-.028L5.81 9.228a.045.045 0 00-.028.058l.4 1.062L17.68 6.305zM4.946 10.618l-.345-.916c-.246-.654.102-1.375.779-1.614l11.412-4.012c.675-.237 1.422.1 1.668.752l2.46 6.532c.247.653-.101 1.375-.777 1.613l-2.356.829v4.993c0 .713-.654 1.205-1.37 1.205H4.238C3.518 20 3 19.49 3 18.795v-6.862c0-.693.5-1.315 1.239-1.315h.707zm.965 4.89a.618.618 0 01-.627-.607c0-.335.28-.607.627-.607h3.947c.347 0 .628.272.628.607a.618.618 0 01-.628.606H5.91zm6.851-1.471a.618.618 0 01-.628-.607c0-.335.281-.606.628-.606h1.691c.347 0 .628.271.628.606a.618.618 0 01-.628.607h-1.69zm-6.85 3.676a.618.618 0 01-.628-.606c0-.335.28-.607.627-.607h.564c.347 0 .628.272.628.607a.618.618 0 01-.628.606h-.564zm2.283 0a.618.618 0 01-.628-.606c0-.335.281-.607.628-.607h.564c.347 0 .628.272.628.607a.618.618 0 01-.628.606h-.564zm3.045 0a.618.618 0 01-.628-.606c0-.335.28-.607.628-.607h.563c.347 0 .628.272.628.607a.618.618 0 01-.628.606h-.563zm3.044 0a.618.618 0 01-.628-.606c0-.335.282-.607.628-.607h.564c.347 0 .628.272.628.607a.618.618 0 01-.628.606h-.564zm1.738-7.68a.634.634 0 01-.805-.362.601.601 0 01.375-.777l1.266-.445a.634.634 0 01.805.362.601.601 0 01-.375.778l-1.266.445z"></path>
</svg>