<svg viewBox="0 0 24 24" xmlns="http://www.w3.org/2000/svg">
    <path fill-rule="evenodd" d="M17.6 10.67L12 4.953 6.4 10.67v8.897h11.2V10.67zM19 12.1v7.468c0 .79-.627 1.432-1.4 1.432H6.4c-.773 0-1.4-.641-1.4-1.432v-7.467l-.649.662a.78.78 0 01-1.12 0 .82.82 0 010-1.143l8.21-8.383a.78.78 0 011.119 0l8.208 8.383a.82.82 0 010 1.143.78.78 0 01-1.12 0L19 12.101zm-6.39-1.392c1.128.187 1.774.858 1.774 1.843a.731.731 0 01-.734.728.731.731 0 01-.733-.728c0-.286-.191-.439-.988-.439-.735 0-.962.199-.962.439 0 .291.19.47.962.47 1.61 0 2.455.87 2.455 2.132 0 .964-.729 1.57-1.774 1.75a.731.731 0 01-.733.72.731.731 0 01-.734-.73v-.045c-.922-.262-1.643-.954-1.643-1.695a.73.73 0 01.734-.728.73.73 0 01.733.728c0 .03.432.348.962.348.69 0 .988-.181.988-.348 0-.469-.2-.675-.988-.675-1.564 0-2.429-.813-2.429-1.927 0-.884.608-1.582 1.643-1.813v-.01a.73.73 0 01.734-.728c.398 0 .722.315.733.708z"></path>
</svg>