<svg viewBox="0 0 24 24" xmlns="http://www.w3.org/2000/svg">
    <path fill-rule="evenodd" d="M20 8.727a5.868 5.868 0 00-.372-1.942 4.094 4.094 0 00-2.34-2.34 5.868 5.868 0 00-1.942-.372c-.853-.039-1.125-.048-3.3-.048s-2.445.009-3.3.048a5.868 5.868 0 00-1.942.372 4.094 4.094 0 00-2.34 2.34A5.868 5.868 0 004.1 8.727c-.039.853-.048 1.125-.048 3.3s.009 2.445.048 3.3a5.868 5.868 0 00.372 1.942 4.094 4.094 0 002.34 2.34 5.868 5.868 0 001.942.372c.853.039 1.125.048 3.3.048s2.445-.009 3.3-.048a5.868 5.868 0 001.942-.372 4.094 4.094 0 002.34-2.34A5.868 5.868 0 0020 15.323c.039-.853.048-1.125.048-3.3S20.041 9.58 20 8.727zm-1.44 6.531a4.419 4.419 0 01-.276 1.485 2.644 2.644 0 01-1.518 1.518 4.419 4.419 0 01-1.485.276c-.844.038-1.1.047-3.233.047s-2.389-.009-3.233-.047a4.419 4.419 0 01-1.485-.276 2.644 2.644 0 01-1.518-1.518 4.419 4.419 0 01-.276-1.485c-.038-.844-.047-1.1-.047-3.233s.009-2.389.047-3.233a4.419 4.419 0 01.276-1.485 2.644 2.644 0 011.52-1.518 4.419 4.419 0 011.485-.276c.844-.038 1.1-.047 3.233-.047s2.389.009 3.233.047a4.419 4.419 0 011.485.276 2.644 2.644 0 011.518 1.518 4.419 4.419 0 01.276 1.485c.038.844.047 1.1.047 3.233s-.009 2.389-.047 3.233zm-6.51-7.341a4.108 4.108 0 104.108 4.108 4.108 4.108 0 00-4.108-4.108zm0 6.775a2.667 2.667 0 112.667-2.667 2.667 2.667 0 01-2.667 2.667zm5.23-6.937a.96.96 0 11-.96-.96.96.96 0 01.96.96z"></path>
</svg>