<svg viewBox="0 0 24 24" xmlns="http://www.w3.org/2000/svg">
    <path d="M18.82 4H5.18A1.17 1.17 0 004 5.15V19a1.17 1.17 0 001.18 1.1h13.64A1.17 1.17 0 0020 19V5.15A1.17 1.17 0 0018.82 4zM8.85 17.48H6.43v-7.27h2.42zm-.966-8.27a1.2 1.2 0 01-.224 0h-.02a1.249 1.249 0 01-1.346-1.145V8a1.27 1.27 0 011.232-1.3 1.207 1.207 0 01.134 0 1.26 1.26 0 11.224 2.51zm9.676 8.27h-2.41v-3.89c0-1-.35-1.65-1.23-1.65a1.33 1.33 0 00-1.24.89 1.711 1.711 0 00-.08.59v4.06h-2.41v-7.27h2.41v1A2.41 2.41 0 0114.78 10c1.59 0 2.78 1 2.78 3.27z" fill-rule="evenodd"></path>
</svg>