<svg viewBox="0 0 24 24" xmlns="http://www.w3.org/2000/svg">
<path fill-rule="evenodd" d="M8.343 17.395l-.01.026-3.65-1.216a21.416 21.416 0 00-.1-.032c2.085 1.467 3.749 2.475 4.978 3.021 1.139.505 2.272.505 3.507-.023l3.014-1.045v-3.181c-.533.047-1.05.235-1.563.57-.947.62-2.19.956-3.795 1.025-.78-.043-.955.069-.955.391 0 .32.172.428.997.378h2.07c.407 0 .737.32.737.714 0 .394-.33.714-.737.714l-2.022-.002c-1.337.084-2.256-.376-2.471-1.34zm.191-1.417c.376-.629 1.168-.923 2.197-.863 1.278-.059 2.262-.325 2.962-.783.861-.563 1.78-.842 2.738-.826A1.49 1.49 0 0117.558 13h1.967c.815 0 1.475.64 1.475 1.428v4.758c0 .788-.66 1.427-1.475 1.427h-1.967a1.471 1.471 0 01-1.407-.995l-2.535.877c-1.568.674-3.143.674-4.67-.003-1.386-.615-3.21-1.729-5.484-3.344l-.097-.068-.069-.095c-.396-.54-.396-1.164.01-1.693.427-.555 1.104-.681 1.851-.439l3.377 1.125zm9.024-1.55v4.758h1.967v-4.758h-1.967zM9 13.5A2.75 2.75 0 119 8a2.75 2.75 0 010 5.5zM9 12a1.25 1.25 0 100-2.5A1.25 1.25 0 009 12zm5.25-3a2.75 2.75 0 110-5.5 2.75 2.75 0 010 5.5zm0-1.5a1.25 1.25 0 100-2.5 1.25 1.25 0 000 2.5z"></path>
</svg>