<svg viewBox="0 0 24 24" xmlns="http://www.w3.org/2000/svg">
    <path fill-rule="evenodd" d="M12.993 20.604l.659.658a.75.75 0 01-1.061 1.061l-2.121-2.121a.75.75 0 010-1.061l2.11-2.11a.75.75 0 011.061 1.06l-1.013 1.013h5.622V7.354a.75.75 0 111.5 0v11.75a1.5 1.5 0 01-1.5 1.5h-5.257zM11.45 4.396l-.763-.762a.75.75 0 111.061-1.06l2.11 2.11a.75.75 0 010 1.06l-2.12 2.122a.75.75 0 01-1.061-1.06l.909-.91H5.75v11.75a.75.75 0 11-1.5 0V5.896a1.5 1.5 0 011.5-1.5h5.7zm1.234 4.847c1.155.196 1.816.9 1.816 1.934a.758.758 0 01-.751.765.758.758 0 01-.751-.765c0-.3-.195-.46-1.011-.46-.752 0-.985.209-.985.46 0 .306.195.494.985.494 1.648 0 2.513.914 2.513 2.237 0 1.012-.746 1.649-1.816 1.837a.758.758 0 01-.75.755.758.758 0 01-.752-.765v-.048c-.944-.275-1.682-1-1.682-1.779 0-.422.336-.764.751-.764s.751.342.751.764c0 .031.442.366.985.366.705 0 1.01-.19 1.01-.366 0-.491-.204-.708-1.01-.708-1.602 0-2.487-.853-2.487-2.023 0-.927.622-1.66 1.682-1.903v-.01c0-.422.336-.764.751-.764.408 0 .74.33.75.743z"></path>
</svg>